<svg xmlns="http://www.w3.org/2000/svg" xmlns:xlink="http://www.w3.org/1999/xlink" fill="none" version="1.1" width="1920" height="90" viewBox="0 0 1920 90"><defs><clipPath id="master_svg0_9_24468"><rect x="0" y="0" width="1920" height="90" rx="0"/></clipPath><filter id="master_svg1_9_24564" filterUnits="objectBoundingBox" color-interpolation-filters="sRGB" x="-16" y="-12" width="427" height="19"><feFlood flood-opacity="0" result="BackgroundImageFix"/><feColorMatrix in="SourceAlpha" type="matrix" values="0 0 0 0 0 0 0 0 0 0 0 0 0 0 0 0 0 0 127 0"/><feOffset dy="4" dx="0"/><feGaussianBlur stdDeviation="2"/><feColorMatrix type="matrix" values="0 0 0 0 0 0 0 0 0 0 0 0 0 0 0 0 0 0 0.25 0"/><feBlend mode="normal" in2="BackgroundImageFix" result="effect1_dropShadow"/><feBlend mode="normal" in="SourceGraphic" in2="effect1_dropShadow" result="shape"/><feGaussianBlur stdDeviation="2" result="effect2_foregroundBlur"/></filter><linearGradient x1="-5.79156367308542e-9" y1="0.5000244379043579" x2="0.9879101514816284" y2="0.5000168681144714" id="master_svg2_9_24566"><stop offset="0%" stop-color="#1890FF" stop-opacity="0"/><stop offset="35.9375%" stop-color="#1890FF" stop-opacity="1"/><stop offset="68.75%" stop-color="#1890FF" stop-opacity="1"/><stop offset="100%" stop-color="#1890FF" stop-opacity="0"/></linearGradient><linearGradient x1="1.0464509725570679" y1="0.4999999403953552" x2="0.032701633870601654" y2="0.5" id="master_svg3_9_24556"><stop offset="0%" stop-color="#129BFF" stop-opacity="0.5799999833106995"/><stop offset="100%" stop-color="#129BFF" stop-opacity="1"/></linearGradient><linearGradient x1="1.0464509725570679" y1="0.4999999403953552" x2="0.032701633870601654" y2="0.5" id="master_svg4_9_24556"><stop offset="0%" stop-color="#129BFF" stop-opacity="0.5799999833106995"/><stop offset="100%" stop-color="#129BFF" stop-opacity="1"/></linearGradient><linearGradient x1="1.0464509725570679" y1="0.4999999403953552" x2="0.032701633870601654" y2="0.5" id="master_svg5_9_24556"><stop offset="0%" stop-color="#129BFF" stop-opacity="0.5799999833106995"/><stop offset="100%" stop-color="#129BFF" stop-opacity="1"/></linearGradient><linearGradient x1="1.0464509725570679" y1="0.4999999403953552" x2="0.032701633870601654" y2="0.5" id="master_svg6_9_24556"><stop offset="0%" stop-color="#129BFF" stop-opacity="0.5799999833106995"/><stop offset="100%" stop-color="#129BFF" stop-opacity="1"/></linearGradient><linearGradient x1="0.923076868057251" y1="0.43869325518608093" x2="2.220446049250313e-16" y2="0.43869325518608093" id="master_svg7_9_24501"><stop offset="0%" stop-color="#129BFF" stop-opacity="0.4300000071525574"/><stop offset="100%" stop-color="#129BFF" stop-opacity="0"/></linearGradient><linearGradient x1="0.923076868057251" y1="0.43869325518608093" x2="2.220446049250313e-16" y2="0.43869325518608093" id="master_svg8_9_24501"><stop offset="0%" stop-color="#129BFF" stop-opacity="0.4300000071525574"/><stop offset="100%" stop-color="#129BFF" stop-opacity="0"/></linearGradient></defs><g clip-path="url(#master_svg0_9_24468)"><g><g><path d="M617.5596,24C617.5596,24,1297.44,24,1297.44,24C1297.44,24,1324,49.5,1324,49.5C1324,49.5,1297.44,75,1297.44,75C1297.44,75,617.5596,75,617.5596,75C617.5596,75,593,49.5,593,49.5C593,49.5,617.5596,24,617.5596,24C617.5596,24,617.5596,24,617.5596,24Z" fill="#09162F" fill-opacity="1"/><path d="M1323.278,48.8069L1297.44,24L617.5596,24L593,49.5L617.5596,75L1297.44,75L1323.278,50.1931L1324,49.5L1323.278,48.8069ZM594.38838,49.5L617.9849,25L1297.038,25L1322.556,49.5L1297.038,74L617.9849,74L594.38838,49.5Z" fill-rule="evenodd" fill="#129BFF" fill-opacity="0.49000000953674316"/></g><g><path d="M691.935,10C691.935,10,1226.065,10,1226.065,10C1226.065,10,1266,50,1266,50C1266,50,1226.065,90,1226.065,90C1226.065,90,691.935,90,691.935,90C691.935,90,652,50,652,50C652,50,691.935,10,691.935,10C691.935,10,691.935,10,691.935,10Z" fill="#09162F" fill-opacity="1"/><path d="M1266,50L1226.065,10L691.935,10L652,50L691.935,90L1226.065,90L1266,50ZM653.41306,50L692.3497,11L1225.65,11L1264.587,50L1225.65,89L692.3497,89L653.41306,50Z" fill-rule="evenodd" fill="#129BFF" fill-opacity="0.49000000953674316"/></g><g filter="url(#master_svg1_9_24564)"><ellipse cx="959.5" cy="88.5" rx="205.5" ry="1.5" fill="url(#master_svg2_9_24566)" fill-opacity="1"/></g><g><path d="M1256.5,50C1256.5,50,1256.8456,50.3613,1256.8456,50.3613C1256.8456,50.3613,1257.2234,50,1257.2234,50C1257.2234,50,1256.8456,49.6387,1256.8456,49.6387C1256.8456,49.6387,1256.5,50,1256.5,50C1256.5,50,1256.5,50,1256.5,50ZM1244.654389,39.361321C1244.654389,39.361321,1256.1544,50.3613,1256.1544,50.3613C1256.1544,50.3613,1256.8456,49.6387,1256.8456,49.6387C1256.8456,49.6387,1245.345611,38.638679,1245.345611,38.638679C1245.345611,38.638679,1244.654389,39.361321,1244.654389,39.361321C1244.654389,39.361321,1244.654389,39.361321,1244.654389,39.361321ZM1256.1544,49.6387C1256.1544,49.6387,1244.654389,60.6387,1244.654389,60.6387C1244.654389,60.6387,1245.345611,61.3613,1245.345611,61.3613C1245.345611,61.3613,1256.8456,50.3613,1256.8456,50.3613C1256.8456,50.3613,1256.1544,49.6387,1256.1544,49.6387C1256.1544,49.6387,1256.1544,49.6387,1256.1544,49.6387Z" fill="url(#master_svg3_9_24556)" fill-opacity="1"/></g><g><path d="M1314.5,50C1314.5,50,1314.8456,50.3613,1314.8456,50.3613C1314.8456,50.3613,1315.2234,50,1315.2234,50C1315.2234,50,1314.8456,49.6387,1314.8456,49.6387C1314.8456,49.6387,1314.5,50,1314.5,50C1314.5,50,1314.5,50,1314.5,50ZM1302.654389,39.361321C1302.654389,39.361321,1314.1544,50.3613,1314.1544,50.3613C1314.1544,50.3613,1314.8456,49.6387,1314.8456,49.6387C1314.8456,49.6387,1303.345611,38.638679,1303.345611,38.638679C1303.345611,38.638679,1302.654389,39.361321,1302.654389,39.361321C1302.654389,39.361321,1302.654389,39.361321,1302.654389,39.361321ZM1314.1544,49.6387C1314.1544,49.6387,1302.654389,60.6387,1302.654389,60.6387C1302.654389,60.6387,1303.345611,61.3613,1303.345611,61.3613C1303.345611,61.3613,1314.8456,50.3613,1314.8456,50.3613C1314.8456,50.3613,1314.1544,49.6387,1314.1544,49.6387C1314.1544,49.6387,1314.1544,49.6387,1314.1544,49.6387Z" fill="url(#master_svg4_9_24556)" fill-opacity="1"/></g><g transform="matrix(-1,0,0,1,1347,0)"><path d="M685,50C685,50,685.3456,50.3613,685.3456,50.3613C685.3456,50.3613,685.7234,50,685.7234,50C685.7234,50,685.3456,49.6387,685.3456,49.6387C685.3456,49.6387,685,50,685,50C685,50,685,50,685,50ZM673.154389,39.361321C673.154389,39.361321,684.6544,50.3613,684.6544,50.3613C684.6544,50.3613,685.3456,49.6387,685.3456,49.6387C685.3456,49.6387,673.845611,38.638679,673.845611,38.638679C673.845611,38.638679,673.154389,39.361321,673.154389,39.361321C673.154389,39.361321,673.154389,39.361321,673.154389,39.361321ZM684.6544,49.6387C684.6544,49.6387,673.154389,60.6387,673.154389,60.6387C673.154389,60.6387,673.845611,61.3613,673.845611,61.3613C673.845611,61.3613,685.3456,50.3613,685.3456,50.3613C685.3456,50.3613,684.6544,49.6387,684.6544,49.6387C684.6544,49.6387,684.6544,49.6387,684.6544,49.6387Z" fill="url(#master_svg5_9_24556)" fill-opacity="1"/></g><g transform="matrix(-1,0,0,1,1229,0)"><path d="M626,50C626,50,626.3456,50.3613,626.3456,50.3613C626.3456,50.3613,626.7234,50,626.7234,50C626.7234,50,626.3456,49.6387,626.3456,49.6387C626.3456,49.6387,626,50,626,50C626,50,626,50,626,50ZM614.154389,39.361321C614.154389,39.361321,625.6544,50.3613,625.6544,50.3613C625.6544,50.3613,626.3456,49.6387,626.3456,49.6387C626.3456,49.6387,614.845611,38.638679,614.845611,38.638679C614.845611,38.638679,614.154389,39.361321,614.154389,39.361321C614.154389,39.361321,614.154389,39.361321,614.154389,39.361321ZM625.6544,49.6387C625.6544,49.6387,614.154389,60.6387,614.154389,60.6387C614.154389,60.6387,614.845611,61.3613,614.845611,61.3613C614.845611,61.3613,626.3456,50.3613,626.3456,50.3613C626.3456,50.3613,625.6544,49.6387,625.6544,49.6387C625.6544,49.6387,625.6544,49.6387,625.6544,49.6387Z" fill="url(#master_svg6_9_24556)" fill-opacity="1"/></g></g><g><g><g><line x1="1323" y1="49.5" x2="1405" y2="49.5" fill-opacity="0" stroke-opacity="0.49000000953674316" stroke="#129BFF" fill="none" stroke-width="1"/></g><g><line x1="1798" y1="48.5" x2="1920" y2="48.5" fill-opacity="0" stroke-opacity="0.49000000953674316" stroke="#129BFF" fill="none" stroke-width="1"/></g><g><line x1="1416" y1="49" x2="1738" y2="49" fill-opacity="0" stroke-opacity="0.49000000953674316" stroke="#129BFF" fill="none" stroke-width="2"/></g><g><g><ellipse cx="1749" cy="49" rx="1" ry="1" fill="#129BFF" fill-opacity="0.49000000953674316"/></g><g><ellipse cx="1763" cy="49" rx="1" ry="1" fill="#129BFF" fill-opacity="0.49000000953674316"/></g><g><ellipse cx="1777" cy="49" rx="1" ry="1" fill="#129BFF" fill-opacity="0.49000000953674316"/></g><g><ellipse cx="1791" cy="49" rx="1" ry="1" fill="#129BFF" fill-opacity="0.49000000953674316"/></g></g></g><g><g transform="matrix(-1,0,0,1,2812,0)"><g><path d="M1438,24C1438,24,1444.75,24,1444.75,24C1444.75,24,1430.75,37.5,1430.75,37.5C1430.75,37.5,1424,37.5,1424,37.5C1424,37.5,1438,24,1438,24C1438,24,1438,24,1438,24Z" fill="#129BFF" fill-opacity="0.49000000953674316"/></g><g><path d="M1452.75,24C1452.75,24,1459.5,24,1459.5,24C1459.5,24,1445.5,37.5,1445.5,37.5C1445.5,37.5,1438.75,37.5,1438.75,37.5C1438.75,37.5,1452.75,24,1452.75,24C1452.75,24,1452.75,24,1452.75,24Z" fill="#129BFF" fill-opacity="0.49000000953674316"/></g><g><path d="M1467.5,24C1467.5,24,1474.25,24,1474.25,24C1474.25,24,1460.25,37.5,1460.25,37.5C1460.25,37.5,1453.5,37.5,1453.5,37.5C1453.5,37.5,1467.5,24,1467.5,24C1467.5,24,1467.5,24,1467.5,24Z" fill="#129BFF" fill-opacity="0.49000000953674316"/></g><g><path d="M1482.25,24C1482.25,24,1489,24,1489,24C1489,24,1475,37.5,1475,37.5C1475,37.5,1468.25,37.5,1468.25,37.5C1468.25,37.5,1482.25,24,1482.25,24C1482.25,24,1482.25,24,1482.25,24Z" fill="#129BFF" fill-opacity="0.49000000953674316"/></g></g><g transform="matrix(-1,0,0,1,3826,0)"><path d="M1927,24C1927,24,2433,24,2433,24C2433,24,2419,37.5,2419,37.5C2419,37.5,1913,37.5,1913,37.5C1913,37.5,1927,24,1927,24C1927,24,1927,24,1927,24Z" fill="url(#master_svg7_9_24501)" fill-opacity="1"/></g></g></g><g transform="matrix(-1,0,0,1,1188,0)"><g><g><line x1="594" y1="49.5" x2="676" y2="49.5" fill-opacity="0" stroke-opacity="0.49000000953674316" stroke="#129BFF" fill="none" stroke-width="1"/></g><g><line x1="1069" y1="48.5" x2="1191" y2="48.5" fill-opacity="0" stroke-opacity="0.49000000953674316" stroke="#129BFF" fill="none" stroke-width="1"/></g><g><line x1="687" y1="49" x2="1009" y2="49" fill-opacity="0" stroke-opacity="0.49000000953674316" stroke="#129BFF" fill="none" stroke-width="2"/></g><g><g><ellipse cx="1020" cy="49" rx="1" ry="1" fill="#129BFF" fill-opacity="0.49000000953674316"/></g><g><ellipse cx="1034" cy="49" rx="1" ry="1" fill="#129BFF" fill-opacity="0.49000000953674316"/></g><g><ellipse cx="1048" cy="49" rx="1" ry="1" fill="#129BFF" fill-opacity="0.49000000953674316"/></g><g><ellipse cx="1062" cy="49" rx="1" ry="1" fill="#129BFF" fill-opacity="0.49000000953674316"/></g></g></g><g><g transform="matrix(-1,0,0,1,1354,0)"><g><path d="M709,24C709,24,715.75,24,715.75,24C715.75,24,701.75,37.5,701.75,37.5C701.75,37.5,695,37.5,695,37.5C695,37.5,709,24,709,24C709,24,709,24,709,24Z" fill="#129BFF" fill-opacity="0.49000000953674316"/></g><g><path d="M723.75,24C723.75,24,730.5,24,730.5,24C730.5,24,716.5,37.5,716.5,37.5C716.5,37.5,709.75,37.5,709.75,37.5C709.75,37.5,723.75,24,723.75,24C723.75,24,723.75,24,723.75,24Z" fill="#129BFF" fill-opacity="0.49000000953674316"/></g><g><path d="M738.5,24C738.5,24,745.25,24,745.25,24C745.25,24,731.25,37.5,731.25,37.5C731.25,37.5,724.5,37.5,724.5,37.5C724.5,37.5,738.5,24,738.5,24C738.5,24,738.5,24,738.5,24Z" fill="#129BFF" fill-opacity="0.49000000953674316"/></g><g><path d="M753.25,24C753.25,24,760,24,760,24C760,24,746,37.5,746,37.5C746,37.5,739.25,37.5,739.25,37.5C739.25,37.5,753.25,24,753.25,24C753.25,24,753.25,24,753.25,24Z" fill="#129BFF" fill-opacity="0.49000000953674316"/></g></g><g transform="matrix(-1,0,0,1,2368,0)"><path d="M1198,24C1198,24,1704,24,1704,24C1704,24,1690,37.5,1690,37.5C1690,37.5,1184,37.5,1184,37.5C1184,37.5,1198,24,1198,24C1198,24,1198,24,1198,24Z" fill="url(#master_svg8_9_24501)" fill-opacity="1"/></g></g></g></g></svg>